  0
SECTION
  2
HEADER
  9
$ACADVER
  1
AC1009
  9
$FILLMODE
 70
0
  9
$EXTMIN
 10
-0.4349
 20
-1.3691
 30
0.0000
  9
$EXTMAX
 10
100.4291
 20
52.1691
 30
0.0000
  0
ENDSEC
  0
SECTION
  2
TABLES
  0
TABLE
  2
LTYPE
 70
1
  0
LTYPE
  2
CONTINUOUS
 70
64
  3
Solid line
 72
65
 73
0
 40
0
  0
ENDTAB
  0
TABLE
  2
LAYER
 70
255
  0
LAYER
  2
20
 70
64
 62
31
  6
CONTINUOUS
  0
LAYER
  2
22
 70
64
 62
253
  6
CONTINUOUS
  0
ENDTAB
  0
ENDSEC
  0
SECTION
  2
BLOCKS
  0
BLOCK
  8
0
  2
RECT
 70
64
 10
0.0000
 20
0.0000
 30
0.0000
  3
RECT
  0
SOLID
  8
0
 10
-0.5000
 20
-0.5000
 30
0.0000
 11
0.5000
 21
-0.5000
 31
0.0000
 12
-0.5000
 22
0.5000
 32
0.0000
 13
0.5000
 23
0.5000
 33
0.0000
  0
ENDBLK
  8
0
  0
BLOCK
  8
0
  2
PIE
 70
64
 10
0.0000
 20
0.0000
 30
0.0000
  3
PIE
  0
CIRCLE
  8
0
 10
0.0000
 20
0.0000
 30
0.0000
 40
0.5000
  0
ENDBLK
  8
0
  0
BLOCK
  8
0
  2
OCTAGONP
 70
64
 10
0.0000
 20
0.0000
 30
0.0000
  3
OCTAGONP
  0
POLYLINE
  8
0
 66
1
 10
0.0000
 20
0.0000
 30
0.0000
 40
0.0000
 41
0.0000
 70
1
  0
VERTEX
  8
0
 10
-0.5000
 20
-0.2071
 30
0.0000
  0
VERTEX
  8
0
 10
-0.5000
 20
0.2071
 30
0.0000
  0
VERTEX
  8
0
 10
-0.2071
 20
0.5000
 30
0.0000
  0
VERTEX
  8
0
 10
0.2071
 20
0.5000
 30
0.0000
  0
VERTEX
  8
0
 10
0.5000
 20
0.2071
 30
0.0000
  0
VERTEX
  8
0
 10
0.5000
 20
-0.2071
 30
0.0000
  0
VERTEX
  8
0
 10
0.2071
 20
-0.5000
 30
0.0000
  0
VERTEX
  8
0
 10
-0.2071
 20
-0.5000
 30
0.0000
  0
SEQEND
  8
0
  0
ENDBLK
  8
0
  0
BLOCK
  8
0
  2
SQUAREP
 70
64
 10
0.0000
 20
0.0000
 30
0.0000
  3
SQUAREP
  0
SOLID
  8
0
 10
-0.5000
 20
-0.5000
 30
0.0000
 11
0.5000
 21
-0.5000
 31
0.0000
 12
-0.5000
 22
0.5000
 32
0.0000
 13
0.5000
 23
0.5000
 33
0.0000
  0
ENDBLK
  8
0
  0
BLOCK
  8
0
  2
ROUNDP
 70
64
 10
0.0000
 20
0.0000
 30
0.0000
  3
ROUNDP
  0
CIRCLE
  8
0
 10
0.0000
 20
0.0000
 30
0.0000
 40
0.5000
  0
ENDBLK
  8
0
  0
BLOCK
  8
0
  2
ANNULUSP
 70
64
 10
0.0000
 20
0.0000
 30
0.0000
  3
ANNULUSP
  0
CIRCLE
  8
0
 10
0.0000
 20
0.0000
 30
0.0000
 40
0.5000
  0
ENDBLK
  8
0
  0
BLOCK
  8
0
  2
THERMALP
 70
64
 10
0.0000
 20
0.0000
 30
0.0000
  3
THERMALP
  0
LINE
  8
0
 10
-0.2379
 20
0.4500
 30
0.0000
 11
0.2379
 21
0.4500
 31
0.0000
  0
LINE
  8
0
 10
0.4500
 20
0.2379
 30
0.0000
 11
0.4500
 21
-0.2379
 31
0.0000
  0
LINE
  8
0
 10
0.2379
 20
-0.4500
 30
0.0000
 11
-0.2379
 21
-0.4500
 31
0.0000
  0
LINE
  8
0
 10
-0.4500
 20
-0.2379
 30
0.0000
 11
-0.4500
 21
0.2379
 31
0.0000
  0
ENDBLK
  8
0
  0
BLOCK
  8
0
  2
OCTAGONV
 70
64
 10
0.0000
 20
0.0000
 30
0.0000
  3
OCTAGONV
  0
POLYLINE
  8
0
 66
1
 10
0.0000
 20
0.0000
 30
0.0000
 40
0.0000
 41
0.0000
 70
1
  0
VERTEX
  8
0
 10
-0.5000
 20
-0.2071
 30
0.0000
  0
VERTEX
  8
0
 10
-0.5000
 20
0.2071
 30
0.0000
  0
VERTEX
  8
0
 10
-0.2071
 20
0.5000
 30
0.0000
  0
VERTEX
  8
0
 10
0.2071
 20
0.5000
 30
0.0000
  0
VERTEX
  8
0
 10
0.5000
 20
0.2071
 30
0.0000
  0
VERTEX
  8
0
 10
0.5000
 20
-0.2071
 30
0.0000
  0
VERTEX
  8
0
 10
0.2071
 20
-0.5000
 30
0.0000
  0
VERTEX
  8
0
 10
-0.2071
 20
-0.5000
 30
0.0000
  0
SEQEND
  8
0
  0
ENDBLK
  8
0
  0
BLOCK
  8
0
  2
SQUAREV
 70
64
 10
0.0000
 20
0.0000
 30
0.0000
  3
SQUAREV
  0
SOLID
  8
0
 10
-0.5000
 20
-0.5000
 30
0.0000
 11
0.5000
 21
-0.5000
 31
0.0000
 12
-0.5000
 22
0.5000
 32
0.0000
 13
0.5000
 23
0.5000
 33
0.0000
  0
ENDBLK
  8
0
  0
BLOCK
  8
0
  2
ROUNDV
 70
64
 10
0.0000
 20
0.0000
 30
0.0000
  3
ROUNDV
  0
CIRCLE
  8
0
 10
0.0000
 20
0.0000
 30
0.0000
 40
0.5000
  0
ENDBLK
  8
0
  0
BLOCK
  8
0
  2
ANNULUSV
 70
64
 10
0.0000
 20
0.0000
 30
0.0000
  3
ANNULUSV
  0
CIRCLE
  8
0
 10
0.0000
 20
0.0000
 30
0.0000
 40
0.5000
  0
ENDBLK
  8
0
  0
BLOCK
  8
0
  2
THERMALV
 70
64
 10
0.0000
 20
0.0000
 30
0.0000
  3
THERMALV
  0
LINE
  8
0
 10
-0.2379
 20
0.4500
 30
0.0000
 11
0.2379
 21
0.4500
 31
0.0000
  0
LINE
  8
0
 10
0.4500
 20
0.2379
 30
0.0000
 11
0.4500
 21
-0.2379
 31
0.0000
  0
LINE
  8
0
 10
0.2379
 20
-0.4500
 30
0.0000
 11
-0.2379
 21
-0.4500
 31
0.0000
  0
LINE
  8
0
 10
-0.4500
 20
-0.2379
 30
0.0000
 11
-0.4500
 21
0.2379
 31
0.0000
  0
ENDBLK
  8
0
  0
BLOCK
  8
0
  2
LONGP100
 70
64
 10
0.0000
 20
0.0000
 30
0.0000
  3
LONGP100
  0
POLYLINE
  8
0
 66
1
 10
0.0000
 20
0.0000
 30
0.0000
 40
0.0000
 41
0.0000
 70
1
  0
VERTEX
  8
0
 10
-0.5000
 20
-0.5000
 30
0.0000
  0
VERTEX
  8
0
 10
0.5000
 20
-0.5000
 30
0.0000
 42
1.0000
  0
VERTEX
  8
0
 10
0.5000
 20
0.5000
 30
0.0000
  0
VERTEX
  8
0
 10
-0.5000
 20
0.5000
 30
0.0000
 42
1.0000
  0
SEQEND
  8
0
  0
ENDBLK
  8
0
  0
ENDSEC
  0
SECTION
  2
ENTITIES
  0
LINE
  8
20
 10
0.0000
 20
0.0000
 30
0.0000
 11
100.0000
 21
0.0000
 31
0.0000
  0
LINE
  8
20
 10
100.0000
 20
0.0000
 30
0.0000
 11
100.0000
 21
50.0000
 31
0.0000
  0
LINE
  8
20
 10
100.0000
 20
50.0000
 30
0.0000
 11
0.0000
 21
50.0000
 31
0.0000
  0
LINE
  8
20
 10
0.0000
 20
50.0000
 30
0.0000
 11
0.0000
 21
0.0000
 31
0.0000
  0
CIRCLE
  8
20
 10
19.0500
 20
16.1925
 30
0.0000
 40
1.5500
  0
CIRCLE
  8
20
 10
48.8950
 20
38.7350
 30
0.0000
 40
1.5500
  0
CIRCLE
  8
20
 10
74.2950
 20
38.7350
 30
0.0000
 40
1.5500
  0
CIRCLE
  8
20
 10
97.1550
 20
3.1750
 30
0.0000
 40
1.5500
  0
LINE
  8
22
 10
38.2800
 20
22.3900
 30
0.0000
 11
38.2800
 21
20.7900
 31
0.0000
  0
LINE
  8
22
 10
35.3800
 20
22.3900
 30
0.0000
 11
35.3800
 21
20.7900
 31
0.0000
  0
LINE
  8
22
 10
35.3800
 20
20.7900
 30
0.0000
 11
35.4000
 21
20.7900
 31
0.0000
  0
LINE
  8
22
 10
35.3800
 20
22.3900
 30
0.0000
 11
35.4000
 21
22.3900
 31
0.0000
  0
LINE
  8
22
 10
38.2600
 20
20.7900
 30
0.0000
 11
38.2800
 21
20.7900
 31
0.0000
  0
LINE
  8
22
 10
38.2600
 20
22.3900
 30
0.0000
 11
38.2800
 21
22.3900
 31
0.0000
  0
CIRCLE
  8
22
 10
35.8800
 20
21.8900
 30
0.0000
 40
0.2000
  0
LINE
  8
22
 10
63.6800
 20
22.3900
 30
0.0000
 11
63.6800
 21
20.7900
 31
0.0000
  0
LINE
  8
22
 10
60.7800
 20
22.3900
 30
0.0000
 11
60.7800
 21
20.7900
 31
0.0000
  0
LINE
  8
22
 10
60.7800
 20
20.7900
 30
0.0000
 11
60.8000
 21
20.7900
 31
0.0000
  0
LINE
  8
22
 10
60.7800
 20
22.3900
 30
0.0000
 11
60.8000
 21
22.3900
 31
0.0000
  0
LINE
  8
22
 10
63.6600
 20
20.7900
 30
0.0000
 11
63.6800
 21
20.7900
 31
0.0000
  0
LINE
  8
22
 10
63.6600
 20
22.3900
 30
0.0000
 11
63.6800
 21
22.3900
 31
0.0000
  0
CIRCLE
  8
22
 10
61.2800
 20
21.8900
 30
0.0000
 40
0.2000
  0
LINE
  8
22
 10
89.0800
 20
22.3900
 30
0.0000
 11
89.0800
 21
20.7900
 31
0.0000
  0
LINE
  8
22
 10
86.1800
 20
22.3900
 30
0.0000
 11
86.1800
 21
20.7900
 31
0.0000
  0
LINE
  8
22
 10
86.1800
 20
20.7900
 30
0.0000
 11
86.2000
 21
20.7900
 31
0.0000
  0
LINE
  8
22
 10
86.1800
 20
22.3900
 30
0.0000
 11
86.2000
 21
22.3900
 31
0.0000
  0
LINE
  8
22
 10
89.0600
 20
20.7900
 30
0.0000
 11
89.0800
 21
20.7900
 31
0.0000
  0
LINE
  8
22
 10
89.0600
 20
22.3900
 30
0.0000
 11
89.0800
 21
22.3900
 31
0.0000
  0
CIRCLE
  8
22
 10
86.6800
 20
21.8900
 30
0.0000
 40
0.2000
  0
LINE
  8
22
 10
20.4724
 20
41.4274
 30
0.0000
 11
19.6596
 21
41.4274
 31
0.0000
  0
LINE
  8
22
 10
19.6596
 20
41.4274
 30
0.0000
 11
19.6596
 21
40.8686
 31
0.0000
  0
LINE
  8
22
 10
19.6596
 20
38.5826
 30
0.0000
 11
20.4724
 21
38.5826
 31
0.0000
  0
LINE
  8
22
 10
19.6596
 20
39.1414
 30
0.0000
 11
19.6596
 21
38.5826
 31
0.0000
  0
LINE
  8
22
 10
67.5300
 20
25.1800
 30
0.0000
 11
67.5300
 21
35.7800
 31
0.0000
  0
LINE
  8
22
 10
67.5300
 20
35.7800
 30
0.0000
 11
56.9300
 21
35.7800
 31
0.0000
  0
LINE
  8
22
 10
56.9300
 20
35.7800
 30
0.0000
 11
56.9300
 21
25.1800
 31
0.0000
  0
LINE
  8
22
 10
56.9300
 20
25.1800
 30
0.0000
 11
67.5300
 21
25.1800
 31
0.0000
  0
LINE
  8
22
 10
92.9300
 20
25.1800
 30
0.0000
 11
92.9300
 21
35.7800
 31
0.0000
  0
LINE
  8
22
 10
92.9300
 20
35.7800
 30
0.0000
 11
82.3300
 21
35.7800
 31
0.0000
  0
LINE
  8
22
 10
82.3300
 20
35.7800
 30
0.0000
 11
82.3300
 21
25.1800
 31
0.0000
  0
LINE
  8
22
 10
82.3300
 20
25.1800
 30
0.0000
 11
92.9300
 21
25.1800
 31
0.0000
  0
LINE
  8
22
 10
42.1300
 20
25.1800
 30
0.0000
 11
42.1300
 21
35.7800
 31
0.0000
  0
LINE
  8
22
 10
42.1300
 20
35.7800
 30
0.0000
 11
31.5300
 21
35.7800
 31
0.0000
  0
LINE
  8
22
 10
31.5300
 20
35.7800
 30
0.0000
 11
31.5300
 21
25.1800
 31
0.0000
  0
LINE
  8
22
 10
31.5300
 20
25.1800
 30
0.0000
 11
42.1300
 21
25.1800
 31
0.0000
  0
LINE
  8
22
 10
16.7550
 20
42.4450
 30
0.0000
 11
16.7550
 21
48.9950
 31
0.0000
  0
LINE
  8
22
 10
16.7550
 20
48.9950
 30
0.0000
 11
11.2800
 21
48.9950
 31
0.0000
  0
LINE
  8
22
 10
11.2800
 20
48.9950
 30
0.0000
 11
10.7800
 21
48.4950
 31
0.0000
  0
LINE
  8
22
 10
10.7800
 20
48.4950
 30
0.0000
 11
10.7800
 21
42.9450
 31
0.0000
  0
LINE
  8
22
 10
10.7800
 20
42.9450
 30
0.0000
 11
11.2800
 21
42.4450
 31
0.0000
  0
LINE
  8
22
 10
11.2800
 20
42.4450
 30
0.0000
 11
16.7550
 21
42.4450
 31
0.0000
  0
INSERT
  8
22
  2
RECT
 10
17.2466
 20
45.7200
 30
0.0000
 41
0.8636
 42
0.7620
 43
1.0000
 50
270.0000
  0
LINE
  8
22
 10
15.9750
 20
33.9000
 30
0.0000
 11
9.4250
 21
33.9000
 31
0.0000
  0
LINE
  8
22
 10
9.4250
 20
33.9000
 30
0.0000
 11
9.4250
 21
28.4250
 31
0.0000
  0
LINE
  8
22
 10
9.4250
 20
28.4250
 30
0.0000
 11
9.9250
 21
27.9250
 31
0.0000
  0
LINE
  8
22
 10
9.9250
 20
27.9250
 30
0.0000
 11
15.4750
 21
27.9250
 31
0.0000
  0
LINE
  8
22
 10
15.4750
 20
27.9250
 30
0.0000
 11
15.9750
 21
28.4250
 31
0.0000
  0
LINE
  8
22
 10
15.9750
 20
28.4250
 30
0.0000
 11
15.9750
 21
33.9000
 31
0.0000
  0
INSERT
  8
22
  2
RECT
 10
12.7000
 20
34.3916
 30
0.0000
 41
0.8636
 42
0.7620
 43
1.0000
 50
0.0000
  0
LINE
  8
22
 10
37.8550
 20
13.4350
 30
0.0000
 11
37.8550
 21
6.8850
 31
0.0000
  0
LINE
  8
22
 10
37.8550
 20
6.8850
 30
0.0000
 11
43.3300
 21
6.8850
 31
0.0000
  0
LINE
  8
22
 10
43.3300
 20
6.8850
 30
0.0000
 11
43.8300
 21
7.3850
 31
0.0000
  0
LINE
  8
22
 10
43.8300
 20
7.3850
 30
0.0000
 11
43.8300
 21
12.9350
 31
0.0000
  0
LINE
  8
22
 10
43.8300
 20
12.9350
 30
0.0000
 11
43.3300
 21
13.4350
 31
0.0000
  0
LINE
  8
22
 10
43.3300
 20
13.4350
 30
0.0000
 11
37.8550
 21
13.4350
 31
0.0000
  0
INSERT
  8
22
  2
RECT
 10
37.3634
 20
10.1600
 30
0.0000
 41
0.8636
 42
0.7620
 43
1.0000
 50
90.0000
  0
LINE
  8
22
 10
21.7400
 20
30.8200
 30
0.0000
 11
17.6900
 21
30.8200
 31
0.0000
  0
LINE
  8
22
 10
17.6900
 20
30.8200
 30
0.0000
 11
17.6900
 21
27.8200
 31
0.0000
  0
LINE
  8
22
 10
17.6900
 20
27.8200
 30
0.0000
 11
21.7400
 21
27.8200
 31
0.0000
  0
LINE
  8
22
 10
21.7400
 20
27.8200
 30
0.0000
 11
21.7400
 21
30.8200
 31
0.0000
  0
CIRCLE
  8
22
 10
21.2900
 20
28.2700
 30
0.0000
 40
0.2121
  0
ENDSEC
  0
EOF
